<mxfile host="Electron" modified="2025-01-20T20:59:07.136Z" agent="Mozilla/5.0 (X11; Linux x86_64) AppleWebKit/537.36 (KHTML, like Gecko) draw.io/21.6.5 Chrome/114.0.5735.243 Electron/25.3.1 Safari/537.36" etag="QupZFRN2QWDlu6Nv2pEb" version="21.6.5" type="device">
  <diagram name="Page-1" id="2lPLnG3_1huFX7BAXHJn">
    <mxGraphModel dx="683" dy="398" grid="1" gridSize="10" guides="1" tooltips="1" connect="1" arrows="1" fold="1" page="1" pageScale="1" pageWidth="1169" pageHeight="827" math="0" shadow="0">
      <root>
        <mxCell id="0" />
        <mxCell id="1" parent="0" />
        <mxCell id="pR7lM-wU-LxlENcMwOQH-1" value="" style="shape=image;verticalLabelPosition=bottom;labelBackgroundColor=default;verticalAlign=top;aspect=fixed;imageAspect=0;image=https://mischianti.org/wp-content/uploads/2022/02/Pinout-STM32-STM32F1-STM32F103-STM32F103C6-STM32F103C6T6-low-resolution.jpg;movable=0;resizable=0;rotatable=0;deletable=0;editable=0;locked=1;connectable=0;" vertex="1" parent="1">
          <mxGeometry x="140" y="30.00000000000003" width="860" height="670.08" as="geometry" />
        </mxCell>
        <mxCell id="pR7lM-wU-LxlENcMwOQH-2" value="&lt;font style=&quot;font-size: 18px;&quot;&gt;1&lt;/font&gt;" style="text;html=1;strokeColor=none;fillColor=none;align=center;verticalAlign=middle;whiteSpace=wrap;rounded=0;fontStyle=1;fontColor=#FF1F1F;fontSize=23;" vertex="1" parent="1">
          <mxGeometry x="828" y="538" width="30" height="20" as="geometry" />
        </mxCell>
        <mxCell id="pR7lM-wU-LxlENcMwOQH-5" value="&lt;font style=&quot;font-size: 18px;&quot;&gt;2&lt;/font&gt;" style="text;html=1;strokeColor=none;fillColor=none;align=center;verticalAlign=middle;whiteSpace=wrap;rounded=0;fontStyle=1;fontColor=#FF1F1F;fontSize=23;" vertex="1" parent="1">
          <mxGeometry x="829" y="518" width="30" height="20" as="geometry" />
        </mxCell>
        <mxCell id="pR7lM-wU-LxlENcMwOQH-6" value="&lt;font style=&quot;font-size: 18px;&quot;&gt;3&lt;/font&gt;" style="text;html=1;strokeColor=none;fillColor=none;align=center;verticalAlign=middle;whiteSpace=wrap;rounded=0;fontStyle=1;fontColor=#FF1F1F;fontSize=23;" vertex="1" parent="1">
          <mxGeometry x="829" y="500" width="30" height="20" as="geometry" />
        </mxCell>
        <mxCell id="pR7lM-wU-LxlENcMwOQH-7" value="&lt;font style=&quot;font-size: 18px;&quot;&gt;4&lt;/font&gt;" style="text;html=1;strokeColor=none;fillColor=none;align=center;verticalAlign=middle;whiteSpace=wrap;rounded=0;fontStyle=1;fontColor=#FF1F1F;fontSize=23;" vertex="1" parent="1">
          <mxGeometry x="829" y="480" width="30" height="20" as="geometry" />
        </mxCell>
        <mxCell id="pR7lM-wU-LxlENcMwOQH-8" value="&lt;font style=&quot;font-size: 18px;&quot;&gt;5&lt;/font&gt;" style="text;html=1;strokeColor=none;fillColor=none;align=center;verticalAlign=middle;whiteSpace=wrap;rounded=0;fontStyle=1;fontColor=#FF1F1F;fontSize=23;" vertex="1" parent="1">
          <mxGeometry x="929" y="461" width="30" height="20" as="geometry" />
        </mxCell>
        <mxCell id="pR7lM-wU-LxlENcMwOQH-9" value="&lt;font style=&quot;font-size: 18px;&quot;&gt;6&lt;/font&gt;" style="text;html=1;strokeColor=none;fillColor=none;align=center;verticalAlign=middle;whiteSpace=wrap;rounded=0;fontStyle=1;fontColor=#FF1F1F;fontSize=23;" vertex="1" parent="1">
          <mxGeometry x="875" y="442" width="30" height="20" as="geometry" />
        </mxCell>
        <mxCell id="pR7lM-wU-LxlENcMwOQH-10" value="&lt;font style=&quot;font-size: 18px;&quot;&gt;7&lt;/font&gt;" style="text;html=1;strokeColor=none;fillColor=none;align=center;verticalAlign=middle;whiteSpace=wrap;rounded=0;fontStyle=1;fontColor=#FF1F1F;fontSize=23;" vertex="1" parent="1">
          <mxGeometry x="875" y="426" width="30" height="20" as="geometry" />
        </mxCell>
        <mxCell id="pR7lM-wU-LxlENcMwOQH-11" value="&lt;font style=&quot;font-size: 18px;&quot;&gt;8&lt;/font&gt;" style="text;html=1;strokeColor=none;fillColor=none;align=center;verticalAlign=middle;whiteSpace=wrap;rounded=0;fontStyle=1;fontColor=#FF1F1F;fontSize=23;" vertex="1" parent="1">
          <mxGeometry x="928" y="333" width="30" height="20" as="geometry" />
        </mxCell>
        <mxCell id="pR7lM-wU-LxlENcMwOQH-12" value="&lt;font style=&quot;font-size: 18px;&quot;&gt;9&lt;/font&gt;" style="text;html=1;strokeColor=none;fillColor=none;align=center;verticalAlign=middle;whiteSpace=wrap;rounded=0;fontStyle=1;fontColor=#FF1F1F;fontSize=23;" vertex="1" parent="1">
          <mxGeometry x="928" y="315" width="30" height="20" as="geometry" />
        </mxCell>
        <mxCell id="pR7lM-wU-LxlENcMwOQH-13" value="&lt;font style=&quot;font-size: 18px;&quot;&gt;10&lt;/font&gt;" style="text;html=1;strokeColor=none;fillColor=none;align=center;verticalAlign=middle;whiteSpace=wrap;rounded=0;fontStyle=1;fontColor=#FF1F1F;fontSize=23;" vertex="1" parent="1">
          <mxGeometry x="879" y="294" width="30" height="20" as="geometry" />
        </mxCell>
        <mxCell id="pR7lM-wU-LxlENcMwOQH-14" value="&lt;font style=&quot;font-size: 18px;&quot;&gt;11&lt;/font&gt;" style="text;html=1;strokeColor=none;fillColor=none;align=center;verticalAlign=middle;whiteSpace=wrap;rounded=0;fontStyle=1;fontColor=#FF1F1F;fontSize=23;" vertex="1" parent="1">
          <mxGeometry x="879" y="276" width="30" height="20" as="geometry" />
        </mxCell>
        <mxCell id="pR7lM-wU-LxlENcMwOQH-15" value="&lt;font style=&quot;font-size: 18px;&quot;&gt;12&lt;/font&gt;" style="text;html=1;strokeColor=none;fillColor=none;align=center;verticalAlign=middle;whiteSpace=wrap;rounded=0;fontStyle=1;fontColor=#FF1F1F;fontSize=23;" vertex="1" parent="1">
          <mxGeometry x="253" y="351" width="30" height="20" as="geometry" />
        </mxCell>
        <mxCell id="pR7lM-wU-LxlENcMwOQH-16" value="&lt;font style=&quot;font-size: 18px;&quot;&gt;13&lt;/font&gt;" style="text;html=1;strokeColor=none;fillColor=none;align=center;verticalAlign=middle;whiteSpace=wrap;rounded=0;fontStyle=1;fontColor=#FF1F1F;fontSize=23;" vertex="1" parent="1">
          <mxGeometry x="144" y="369" width="30" height="20" as="geometry" />
        </mxCell>
        <mxCell id="pR7lM-wU-LxlENcMwOQH-17" value="&lt;font style=&quot;font-size: 18px;&quot;&gt;14&lt;/font&gt;" style="text;html=1;strokeColor=none;fillColor=none;align=center;verticalAlign=middle;whiteSpace=wrap;rounded=0;fontStyle=1;fontColor=#FF1F1F;fontSize=23;" vertex="1" parent="1">
          <mxGeometry x="143" y="388" width="30" height="20" as="geometry" />
        </mxCell>
        <mxCell id="pR7lM-wU-LxlENcMwOQH-18" value="&lt;font style=&quot;font-size: 18px;&quot;&gt;15&lt;/font&gt;" style="text;html=1;strokeColor=none;fillColor=none;align=center;verticalAlign=middle;whiteSpace=wrap;rounded=0;fontStyle=1;fontColor=#FF1F1F;fontSize=23;" vertex="1" parent="1">
          <mxGeometry x="198" y="404" width="30" height="20" as="geometry" />
        </mxCell>
        <mxCell id="pR7lM-wU-LxlENcMwOQH-19" value="&lt;font style=&quot;font-size: 18px;&quot;&gt;16&lt;/font&gt;" style="text;html=1;strokeColor=none;fillColor=none;align=center;verticalAlign=middle;whiteSpace=wrap;rounded=0;fontStyle=1;fontColor=#FF1F1F;fontSize=23;" vertex="1" parent="1">
          <mxGeometry x="197" y="424" width="30" height="20" as="geometry" />
        </mxCell>
        <mxCell id="pR7lM-wU-LxlENcMwOQH-20" value="&lt;font style=&quot;font-size: 18px;&quot;&gt;Left X&lt;/font&gt;" style="text;html=1;strokeColor=none;fillColor=none;align=center;verticalAlign=middle;whiteSpace=wrap;rounded=0;fontStyle=1;fontColor=#FF1F1F;fontSize=23;" vertex="1" parent="1">
          <mxGeometry x="165" y="276" width="63" height="20" as="geometry" />
        </mxCell>
        <mxCell id="pR7lM-wU-LxlENcMwOQH-21" value="&lt;font style=&quot;font-size: 18px;&quot;&gt;Left Y&lt;/font&gt;" style="text;html=1;strokeColor=none;fillColor=none;align=center;verticalAlign=middle;whiteSpace=wrap;rounded=0;fontStyle=1;fontColor=#FF1F1F;fontSize=23;" vertex="1" parent="1">
          <mxGeometry x="162" y="295" width="68" height="20" as="geometry" />
        </mxCell>
        <mxCell id="pR7lM-wU-LxlENcMwOQH-22" value="&lt;font style=&quot;font-size: 18px;&quot;&gt;Right X&lt;/font&gt;" style="text;html=1;strokeColor=none;fillColor=none;align=center;verticalAlign=middle;whiteSpace=wrap;rounded=0;fontStyle=1;fontColor=#FF1F1F;fontSize=23;" vertex="1" parent="1">
          <mxGeometry x="150" y="314" width="76" height="20" as="geometry" />
        </mxCell>
        <mxCell id="pR7lM-wU-LxlENcMwOQH-23" value="&lt;font style=&quot;font-size: 18px;&quot;&gt;Right&amp;nbsp;Y&lt;/font&gt;" style="text;html=1;strokeColor=none;fillColor=none;align=center;verticalAlign=middle;whiteSpace=wrap;rounded=0;fontStyle=1;fontColor=#FF1F1F;fontSize=23;" vertex="1" parent="1">
          <mxGeometry x="154" y="333" width="68" height="20" as="geometry" />
        </mxCell>
      </root>
    </mxGraphModel>
  </diagram>
</mxfile>
